<?xml version="1.0" encoding="UTF-8" standalone="no"?>
<!DOCTYPE svg PUBLIC "-//W3C//DTD SVG 1.1//EN" "http://www.w3.org/Graphics/SVG/1.1/DTD/svg11.dtd">
<svg width="100%" height="100%" viewBox="0 0 1411 17" version="1.1" xmlns="http://www.w3.org/2000/svg" xmlns:xlink="http://www.w3.org/1999/xlink" xml:space="preserve" style="fill-rule:evenodd;clip-rule:evenodd;stroke-linecap:round;stroke-linejoin:round;stroke-miterlimit:1.5;">
    <g transform="matrix(1,0,0,1,37.7333,-1431.35)">
        <g transform="matrix(1,0,0,3.53906,0,-8.0469e-13)">
            <g id="Separation-line" transform="matrix(1,0,0,1,0,61.3792)">
                <g transform="matrix(1.27574,0,0,0.246849,-64.4145,52.7254)">
                    <path d="M23.057,1192.14C91.613,1182.35 162.711,1186.56 233.604,1186.56" style="fill:none;stroke:rgb(189,220,89);stroke-width:5px;"/>
                </g>
                <g transform="matrix(1,0,0,0.282561,0,10.3841)">
                    <path d="M257.826,1188.42C262.174,1188.42 266.522,1188.42 270.869,1188.42" style="fill:none;stroke:rgb(189,220,89);stroke-width:5px;"/>
                </g>
                <g transform="matrix(1,0,0,0.282561,0,10.3841)">
                    <path d="M290.023,1190.13C295.586,1189.7 301.139,1188.94 306.718,1188.94" style="fill:none;stroke:rgb(189,220,89);stroke-width:5px;"/>
                </g>
                <g transform="matrix(1,0,0,0.282561,0,10.3841)">
                    <path d="M337.723,1186.56C344.619,1187.62 363.888,1191.75 372.305,1188.94C384.892,1184.74 412.694,1179.35 427.159,1184.17C447.997,1191.12 488.468,1185.36 511.825,1185.36C567.309,1185.36 624.574,1187.75 681.157,1187.75" style="fill:none;stroke:rgb(189,220,89);stroke-width:5px;"/>
                </g>
                <g transform="matrix(1,0,0,0.282561,0,10.3841)">
                    <path d="M708.584,1191.33C714.257,1190.76 717.943,1190.13 722.894,1190.13" style="fill:none;stroke:rgb(189,220,89);stroke-width:5px;"/>
                </g>
                <g transform="matrix(1,0,0,0.282561,0,10.3841)">
                    <path d="M745.551,1186.56C776.388,1186.56 808.524,1187.75 838.564,1187.75C842.776,1187.75 861.817,1180 865.991,1184.17C869.734,1187.91 877.632,1186.56 883.879,1186.56" style="fill:none;stroke:rgb(189,220,89);stroke-width:5px;"/>
                </g>
                <g transform="matrix(1,0,0,0.282561,0,10.3841)">
                    <path d="M899.381,1186.56C908.95,1186.56 921.039,1185.36 929.193,1185.36" style="fill:none;stroke:rgb(189,220,89);stroke-width:5px;"/>
                </g>
                <g transform="matrix(1,0,0,0.282561,0,10.3841)">
                    <path d="M948.273,1187.75C957.415,1187.75 966.557,1187.75 975.7,1187.75" style="fill:none;stroke:rgb(189,220,89);stroke-width:5px;"/>
                </g>
                <g transform="matrix(1,0,0,0.282561,0,10.3841)">
                    <path d="M999.549,1187.75C1014.91,1186.57 1027.6,1183.07 1042.48,1180.59C1055.37,1178.44 1068.79,1181.79 1081.83,1181.79" style="fill:none;stroke:rgb(189,220,89);stroke-width:5px;"/>
                </g>
                <g transform="matrix(1,0,0,0.282561,0,10.3841)">
                    <path d="M1105.68,1181.79C1142.76,1181.79 1177.17,1184.17 1214.2,1184.17C1218.61,1184.17 1249.48,1183.67 1249.97,1184.17C1252.21,1186.41 1298.49,1191.51 1303.63,1188.94C1322.03,1179.74 1346.59,1181.79 1370.41,1181.79" style="fill:none;stroke:rgb(189,220,89);stroke-width:5px;"/>
                </g>
            </g>
        </g>
    </g>
</svg>
