<?xml version="1.0" encoding="UTF-8" standalone="no"?>
<!DOCTYPE svg PUBLIC "-//W3C//DTD SVG 1.1//EN" "http://www.w3.org/Graphics/SVG/1.1/DTD/svg11.dtd">
<svg width="100%" height="100%" viewBox="0 0 261 195" version="1.1" xmlns="http://www.w3.org/2000/svg" xmlns:xlink="http://www.w3.org/1999/xlink" xml:space="preserve" style="fill-rule:evenodd;clip-rule:evenodd;stroke-linejoin:round;stroke-miterlimit:1.41421;">
    <g transform="matrix(1,0,0,1,-549.707,-132)">
        <g transform="matrix(1,0,0,3.53906,0,-8.0469e-13)">
            <g id="Logo" transform="matrix(1,0,0,0.476453,0,14.3889)">
                <g transform="matrix(1.55243,0,0,0.920667,-361.71,-58.7147)">
                    <circle cx="671.02" cy="167.02" r="51.02" style="fill:rgb(0,37,84);"/>
                </g>
                <g id="path3351" transform="matrix(0.167036,0,0,0.0990608,628.997,62.7775)">
                    <path d="M150.913,576.307C148.988,575.504 146.702,573.614 145.834,572.109C144.851,570.403 141.297,567.864 136.406,565.372C132.088,563.172 126.604,559.883 124.219,558.064C121.834,556.245 118.427,554.257 116.648,553.646C113.37,552.52 102.76,543.042 100.667,539.372C100.04,538.272 99.141,535.122 98.669,532.372C96.664,520.689 96.626,519.555 98.196,518.406C99.036,517.792 100.232,515.401 100.853,513.092C102.349,507.536 106.559,499.253 108.7,497.652C110.466,496.332 116.726,487.292 118.935,482.872C120.239,480.261 126.624,472.991 137.499,461.732C141.027,458.081 143.913,454.593 143.913,453.982C143.913,453.371 146.275,450.494 149.163,447.589C152.05,444.683 155.988,440.412 157.913,438.098C159.838,435.783 163.068,432.648 165.091,431.131C167.347,429.438 169.73,426.246 171.258,422.872C179.418,404.839 181.956,398.765 183.491,393.592C185.165,387.948 185.158,387.76 183.176,385.592C179.56,381.636 177.795,376.869 177.233,369.547C176.901,365.206 175.775,360.397 174.383,357.372C171.075,350.182 167.809,334.194 166.907,320.78C166.457,314.096 165.506,307.956 164.659,306.28C163.851,304.68 162.898,301.347 162.539,298.872C160.885,287.448 159.77,284.999 154.098,280.33C151.12,277.878 148.006,275.872 147.179,275.872C145.183,275.872 133.658,268.905 132.514,267.008C130.468,263.615 125.399,250.209 124.656,250.953C124.298,251.31 116.548,247.974 114.027,245.638C110.931,242.77 106.849,249.86 105.121,253.762C104.418,255.351 102.73,257.939 101.371,259.512C100.012,261.085 97.045,264.51 94.778,267.123C92.385,269.881 88.089,273.197 84.534,275.029C81.167,276.765 77.207,278.806 75.734,279.566C74.261,280.325 68.636,281.2 63.234,281.51C54.456,282.014 52.54,281.794 45.196,279.44C40.614,277.971 35.036,275.322 32.586,273.452C30.169,271.607 26.544,269.316 24.531,268.361C20.235,266.322 4.479,252.798 2.847,249.749C2.228,248.593 1.911,246.662 2.141,245.457C2.371,244.252 1.964,242.709 1.236,242.029C-0.704,240.217 -0.396,238.496 2.413,235.466C3.788,233.982 4.913,232.43 4.913,232.016C4.913,230.863 10.992,225.438 14.913,223.091C16.838,221.939 22.002,218.282 26.39,214.964C30.777,211.646 35.625,208.654 37.163,208.316C38.702,207.979 41.37,206.516 43.093,205.066C45.926,202.683 47.187,202.391 56.232,202.028C62.035,201.795 68.528,202.139 71.692,202.847C83.26,205.436 102.248,222.21 108.713,229.695L119.341,235.009L114.027,224.381C113.679,222.456 111.482,218.016 111.067,215.136C110.651,212.257 109.321,208.544 108.112,206.886C106.902,205.228 104.912,202.409 103.688,200.622C102.465,198.834 99.806,195.122 97.78,192.372C93.254,186.229 84.521,169.634 81.203,160.872C79.849,157.297 78.226,153.75 77.596,152.99C74.807,149.629 61.913,123.264 61.913,120.922C61.913,120.004 61.252,118.38 60.444,117.313C58.795,115.132 58.448,108.223 59.809,104.645C61.185,101.026 67.869,96.872 72.315,96.872C75.271,96.872 76.752,97.558 79.011,99.977C80.607,101.685 81.913,103.73 81.913,104.52C81.913,105.311 83.89,108.075 86.308,110.664C90.48,115.133 101.913,131.286 101.913,132.712C101.913,133.081 104.375,136.755 107.384,140.877C110.394,144.999 113.969,150.445 115.329,152.979C116.689,155.513 118.936,158.934 120.322,160.581C123.1,163.883 136.454,189.613 139.286,197.122C140.272,199.734 141.422,201.872 141.843,201.872C142.264,201.872 143.455,203.784 144.489,206.122C148.238,214.596 157.313,227.191 167.504,238.063C173.229,244.17 177.913,249.507 177.913,249.922C177.913,250.337 180.433,252.35 183.514,254.395C187.413,256.983 189.548,259.216 190.539,261.742C191.322,263.738 192.487,266.272 193.127,267.372C195.964,272.245 197.913,276.939 197.913,278.9C197.913,280.068 199.432,284.703 201.29,289.198C206.044,300.704 209.657,309.986 210.407,312.622C210.914,314.404 211.774,314.872 214.546,314.872C218.127,314.872 221.795,313.431 223.204,311.472C223.639,310.867 223.715,306.707 223.373,302.228C222.866,295.596 223.072,293.463 224.484,290.734C227.355,285.182 233.619,277.439 238.147,273.847C240.493,271.986 243.916,269.092 245.753,267.417C249.159,264.311 257.913,253.515 257.913,252.419C257.913,252.087 259.488,248.496 261.413,244.439C264.784,237.334 264.913,236.64 264.913,225.527C264.913,218.914 264.486,213.726 263.913,213.372C263.363,213.032 262.913,211.439 262.913,209.832C262.913,207.545 263.459,206.773 265.426,206.279C266.841,205.924 268.567,206.17 269.378,206.842C270.169,207.499 271.736,207.745 272.861,207.388C276.315,206.292 288.676,210.871 293.403,214.999C302.655,223.076 319.363,233.152 342.413,244.552C356.163,251.352 370.518,258.706 374.314,260.894C378.11,263.082 381.807,264.872 382.529,264.872C383.855,264.872 385.913,267.858 385.913,269.783C385.913,270.356 384.805,271.551 383.451,272.439C381.415,273.772 372.868,275.855 369.117,277.524C364.004,279.799 366.926,284.288 362.483,286.63C359.259,288.329 348.913,299.844 348.913,301.733C348.913,302.255 347.45,304.486 345.663,306.691C343.875,308.896 340.388,313.693 337.913,317.351C335.438,321.009 331.172,327.01 328.433,330.687C325.694,334.363 322.735,338.722 321.856,340.372C320.978,342.022 318.279,347.139 315.859,351.744C313.439,356.348 310.099,361.157 308.436,362.429C305.226,364.886 304.142,366.72 298.448,379.325C296.472,383.699 294.248,387.974 293.507,388.825C292.765,389.675 291.454,393.201 290.593,396.659C289.214,402.197 289.199,403.433 290.47,407.035C292.285,412.179 292.318,418.965 290.549,423.198C289.799,424.993 286.987,428.39 284.299,430.747C281.24,433.43 278.29,437.342 276.412,441.203C272.764,448.704 266.589,453.872 261.273,453.872C258.369,453.872 256.826,454.829 252.005,459.622C248.823,462.784 245.423,466.947 244.449,468.872C243.475,470.797 241.864,473.272 240.868,474.372C239.872,475.472 236.975,481.772 234.43,488.372C231.886,494.972 229.123,501.415 228.29,502.691C227.457,503.966 225.519,509.487 223.983,514.959C220.988,525.627 219.376,528.158 213.942,530.73C209.401,532.878 201.024,547.375 200.956,553.2C200.92,556.292 200.163,557.77 197.014,560.887C194.871,563.01 191.957,567.197 190.541,570.192C187.937,575.696 186.519,576.883 182.58,576.857C180.33,576.842 172.962,574.504 169.754,572.787C168.509,572.12 167.912,572.141 167.912,572.851C167.912,574.697 161.532,577.865 157.912,577.816C155.987,577.79 152.837,577.11 150.912,576.307L150.913,576.307ZM503.378,407.92C502.259,407.466 500.768,406.403 500.066,405.556C498.027,403.1 481.412,369.875 479.47,364.372C478.5,361.622 476.575,357.011 475.192,354.125C472.271,348.03 471.997,348.741 481.681,337.27C506.961,307.327 523.992,277.465 536.089,241.872C540.445,229.053 553.904,184.26 553.928,182.5C553.984,178.361 555.76,178.866 574.399,188.325C584.746,193.576 593.612,197.872 594.102,197.872C594.592,197.872 596.288,198.829 597.87,199.998C600.279,201.779 601.232,201.956 603.731,201.085C607.865,199.643 611.323,201.993 610.59,205.745C609.371,211.974 607.774,217.154 606.444,219.187C605.658,220.388 604.364,223.872 603.568,226.929C602.685,230.325 599.946,235.683 596.525,240.707C593.391,245.309 590.421,251.006 589.776,253.649C587.682,262.243 575.64,284.272 572.345,285.536C571.557,285.838 570.913,286.591 570.913,287.209C570.913,288.458 566.725,299.084 565.922,299.872C565.642,300.147 564.235,302.847 562.796,305.872C561.356,308.897 558.573,313.474 556.611,316.044C554.649,318.614 552.33,322.097 551.458,323.784C550.585,325.471 548.081,327.765 545.892,328.882C541.757,330.992 541.036,332.551 543.163,334.784C544.182,335.855 543.998,335.971 542.163,335.417C539.381,334.576 539.298,335.82 541.913,339.144C543.013,340.543 543.913,342.123 543.913,342.655C543.913,345.018 538.881,354.601 536.458,356.854C534.989,358.22 532.843,360.92 531.688,362.854C530.534,364.789 528.809,367.272 527.856,368.372C526.903,369.472 525.799,372.397 525.402,374.872C524.587,379.952 523.497,382.453 520.803,385.419C519.781,386.545 518.057,390.045 516.973,393.196C515.889,396.347 514.307,399.62 513.457,400.47C512.608,401.319 511.913,402.857 511.913,403.886C511.913,405.755 508.385,408.928 506.44,408.808C505.875,408.773 504.497,408.374 503.378,407.92L503.378,407.92ZM459.413,323.177C457.213,320.069 453.69,315.511 451.584,313.047C449.478,310.584 445.765,305.547 443.332,301.854C440.9,298.162 437.839,294.068 436.53,292.756C431.226,287.442 420.801,274.23 420.275,272.157C419.967,270.94 418.87,269.676 417.839,269.348C416.808,269.021 415.166,267.752 414.189,266.528C412.402,264.29 404.986,260.727 399.413,259.429C397.763,259.044 394.388,257.45 391.913,255.885C389.438,254.32 384.263,251.513 380.413,249.648C371.764,245.457 357.997,237.017 353.605,233.214C351.799,231.651 346.517,228.616 341.867,226.47C312.881,213.096 298.793,205.62 273.913,190.413C255.96,179.441 253.079,177.855 249.964,177.232C245.928,176.425 244.574,173.748 245.153,167.725C245.52,163.902 246.567,161.647 250.077,157.121C252.528,153.959 256.017,148.897 257.829,145.872C259.642,142.847 262.173,139.247 263.455,137.872C264.737,136.497 267.196,131.772 268.918,127.372C270.641,122.972 273.348,116.672 274.933,113.372C276.518,110.072 279.446,103.547 281.44,98.872C283.434,94.197 286.098,88.347 287.36,85.872C288.622,83.397 290.485,79.122 291.501,76.372C292.517,73.622 294.262,69.96 295.38,68.236C296.498,66.511 298.168,63.718 299.091,62.029C302.025,56.662 310.754,54.378 317.261,57.274C318.995,58.045 323.113,59.868 326.413,61.325C336.621,65.833 352.138,73.941 358.123,77.894C361.264,79.969 366.931,82.85 370.716,84.297C374.502,85.743 381.926,89.727 387.213,93.149C404.832,104.553 415.254,110.567 434.413,120.389C444.863,125.746 456.338,131.811 459.913,133.868C474.149,142.058 527.531,166.872 530.913,166.872C531.372,166.872 533.845,167.771 536.409,168.87C540.874,170.784 541.045,171.007 540.43,174.12C540.077,175.908 539.399,178.497 538.924,179.872C538.45,181.247 537.077,185.747 535.873,189.872C534.67,193.997 532.662,200.747 531.41,204.872C530.159,208.997 528.348,215.072 527.386,218.372C522.244,236.018 514.13,257.771 508.737,268.372C505.957,273.834 499.381,283.463 496.252,286.651C495.561,287.355 491.049,292.98 486.225,299.151C481.402,305.322 476.419,311.497 475.152,312.872C473.885,314.247 470.784,318.409 468.261,322.122C465.738,325.834 463.615,328.862 463.543,328.85C463.471,328.838 461.613,326.285 459.413,323.177L459.413,323.177ZM446.432,112.239C442.593,110.387 438.298,108.872 436.886,108.872C435.475,108.872 430.966,106.681 426.866,104.004C421.732,100.651 417.883,98.913 414.496,98.418C409.097,97.628 406.523,96.26 400.206,90.819C397.892,88.826 394.067,86.275 391.706,85.15C376.141,77.737 371.497,75.388 364.008,71.139C359.385,68.517 354.699,65.153 353.594,63.663C350.833,59.942 350.266,51.626 352.381,45.872C354.458,40.223 356.6,32.319 358.401,23.665C359.168,19.976 360.215,16.151 360.727,15.165C361.238,14.178 361.958,11.295 362.326,8.757C363.478,0.807 364.141,0.418 377.171,0.039C392.554,-0.408 409.718,2.987 419.375,8.388C426.232,12.222 428.239,14.764 429.431,21.12C430.609,27.399 434.109,28.623 435.212,23.142C435.895,19.751 440.442,16.872 445.114,16.872C447.729,16.872 449.331,17.731 452.101,20.622C454.078,22.684 456.034,25.497 456.447,26.872C457.518,30.429 460.641,32.265 465.877,32.413C473.21,32.622 473.747,32.775 474.406,34.852C474.752,35.941 476.581,39.429 478.47,42.602C480.36,45.775 482.92,50.099 484.159,52.21C485.399,54.321 487.925,58.103 489.774,60.615C492.893,64.851 493.057,65.445 492.046,68.822C491.446,70.824 489.416,74.26 487.534,76.458C485.653,78.656 483.372,82.236 482.465,84.413C481.559,86.59 479.925,89.272 478.834,90.372C477.744,91.472 474.953,95.263 472.632,98.798C468.253,105.466 467.875,106.089 466.249,109.312C465.71,110.379 463.952,111.65 462.341,112.135C460.73,112.621 458.288,113.526 456.913,114.148C455.538,114.769 454.188,115.351 453.913,115.441C453.638,115.532 450.272,114.09 446.432,112.239L446.432,112.239Z" style="fill:white;fill-rule:nonzero;stroke:rgb(189,220,101);stroke-opacity:0;stroke-width:5.99px;"/>
                </g>
                <g transform="matrix(0.191608,0,0,0.10166,549.707,120.375)">
                    <path d="M1360,212.999C1360,156.508 1339.92,102.331 1304.19,62.386C1268.45,22.441 1219.98,0 1169.44,0C910.359,0 449.641,0 190.556,0C140.017,0 91.549,22.441 55.813,62.386C20.076,102.331 0,156.508 0,212.999C0,213 0,213 0,213.001C0,269.492 20.076,323.669 55.813,363.614C91.549,403.559 140.017,426 190.556,426C449.641,426 910.359,426 1169.44,426C1219.98,426 1268.45,403.559 1304.19,363.614C1339.92,323.669 1360,269.492 1360,213.001C1360,213 1360,213 1360,212.999Z" style="fill:rgb(0,37,84);"/>
                </g>
                <g transform="matrix(2.85261,0,0,1.69174,-1465.65,-464.414)">
                    <g>
                        <text x="715.347px" y="363.113px" style="font-family:'TitanOne', 'Titan One';font-size:12px;fill:white;">TIN GARDEN</text>
                    </g>
                </g>
            </g>
        </g>
    </g>
</svg>
