<?xml version="1.0" encoding="UTF-8" standalone="no"?><!DOCTYPE svg PUBLIC "-//W3C//DTD SVG 1.1//EN" "http://www.w3.org/Graphics/SVG/1.1/DTD/svg11.dtd"><svg width="100%" height="100%" viewBox="0 0 261 195" version="1.1" xmlns="http://www.w3.org/2000/svg" xmlns:xlink="http://www.w3.org/1999/xlink" xml:space="preserve" style="fill-rule:evenodd;clip-rule:evenodd;stroke-linejoin:round;stroke-miterlimit:1.41421;"><g id="Logo"><circle cx="130.293" cy="79.205" r="79.205" style="fill:#002549;"/><path id="path3351" d="M101.234,133.222c-0.362,-0.152 -0.792,-0.507 -0.956,-0.79c-0.185,-0.321 -0.853,-0.799 -1.774,-1.268c-0.812,-0.414 -1.844,-1.033 -2.293,-1.375c-0.449,-0.342 -1.09,-0.716 -1.425,-0.832c-0.616,-0.211 -2.613,-1.995 -3.007,-2.685c-0.118,-0.207 -0.287,-0.8 -0.376,-1.318c-0.377,-2.198 -0.384,-2.411 -0.089,-2.627c0.158,-0.116 0.383,-0.566 0.5,-1c0.282,-1.046 1.074,-2.605 1.477,-2.906c0.332,-0.248 1.51,-1.949 1.926,-2.781c0.245,-0.491 1.447,-1.859 3.493,-3.978c0.664,-0.687 1.207,-1.343 1.207,-1.458c0,-0.115 0.444,-0.656 0.988,-1.203c0.543,-0.547 1.284,-1.351 1.646,-1.786c0.362,-0.436 0.97,-1.026 1.351,-1.311c0.425,-0.319 0.873,-0.919 1.16,-1.554c1.536,-3.393 2.013,-4.536 2.302,-5.51c0.315,-1.062 0.314,-1.097 -0.059,-1.505c-0.68,-0.744 -1.013,-1.641 -1.118,-3.019c-0.063,-0.817 -0.275,-1.722 -0.537,-2.291c-0.622,-1.353 -1.237,-4.362 -1.406,-6.886c-0.085,-1.257 -0.264,-2.413 -0.423,-2.728c-0.152,-0.301 -0.332,-0.928 -0.399,-1.394c-0.311,-2.15 -0.521,-2.61 -1.589,-3.489c-0.56,-0.462 -1.146,-0.839 -1.302,-0.839c-0.375,0 -2.544,-1.311 -2.759,-1.668c-0.385,-0.638 -1.411,-1.613 -1.551,-1.473c-0.083,0.083 -0.179,0.76 -0.214,1.505c-0.659,1.613 -0.687,2.446 -0.782,2.953c-0.273,1.549 -0.795,2.631 -1.507,3.244c-0.392,0.337 -0.771,0.802 -0.843,1.032c-0.312,0.999 -1.846,1.52 -2.66,0.905c-0.201,-0.152 -0.598,-0.279 -0.883,-0.282c-0.359,-0.005 -0.808,-0.285 -1.459,-0.913l-0.94,-0.906l0,-1.358c0,-1.121 0.057,-1.378 0.329,-1.478c0.182,-0.066 0.583,-0.329 0.893,-0.584c0.31,-0.256 0.913,-0.615 1.341,-0.799c1.32,-0.565 3.394,-3.044 3.547,-4.237c0.101,-0.788 -0.1,-0.836 -0.425,-0.101c-0.133,0.299 -0.45,0.786 -0.706,1.082c-0.256,0.296 -0.814,0.94 -1.241,1.432c-0.45,0.519 -1.258,1.143 -1.927,1.488c-0.634,0.326 -1.379,0.71 -1.656,0.853c-0.277,0.143 -1.336,0.308 -2.352,0.366c-1.652,0.095 -2.013,0.053 -3.395,-0.39c-0.862,-0.276 -1.911,-0.774 -2.372,-1.126c-0.455,-0.347 -1.137,-0.779 -1.516,-0.958c-0.808,-0.384 -3.773,-2.929 -4.08,-3.503c-0.117,-0.217 -0.176,-0.58 -0.133,-0.807c0.043,-0.227 -0.033,-0.517 -0.17,-0.645c-0.366,-0.341 -0.308,-0.665 0.221,-1.235c0.259,-0.279 0.47,-0.571 0.47,-0.649c0,-0.217 1.144,-1.238 1.882,-1.68c0.362,-0.216 1.334,-0.905 2.16,-1.529c0.825,-0.624 1.738,-1.187 2.027,-1.251c0.289,-0.063 0.792,-0.339 1.116,-0.611c0.533,-0.449 0.77,-0.504 2.472,-0.572c1.092,-0.044 2.314,0.021 2.909,0.154c2.177,0.487 6.133,2.697 7.35,4.106l0.44,0.509l-0.119,-0.659c-0.066,-0.362 -0.184,-1.102 -0.262,-1.644c-0.078,-0.541 -0.328,-1.24 -0.556,-1.552c-0.227,-0.312 -0.602,-0.842 -0.832,-1.179c-0.23,-0.336 -0.731,-1.035 -1.112,-1.552c-0.852,-1.156 -2.495,-4.279 -3.119,-5.927c-0.255,-0.673 -0.56,-1.341 -0.679,-1.483c-0.525,-0.633 -2.951,-5.594 -2.951,-6.035c0,-0.172 -0.124,-0.478 -0.276,-0.679c-0.311,-0.41 -0.376,-1.71 -0.12,-2.384c0.259,-0.681 1.517,-1.462 2.353,-1.462c0.557,0 0.835,0.129 1.26,0.584c0.301,0.322 0.546,0.706 0.546,0.855c0,0.149 0.373,0.669 0.827,1.156c0.786,0.841 2.937,3.88 2.937,4.149c0,0.069 0.463,0.761 1.029,1.536c0.567,0.776 1.239,1.801 1.495,2.277c0.256,0.477 0.679,1.121 0.94,1.431c0.523,0.621 3.035,5.463 3.568,6.876c0.186,0.491 0.402,0.893 0.482,0.893c0.079,0 0.303,0.36 0.497,0.8c0.706,1.595 2.413,3.965 4.331,6.011c1.077,1.149 1.959,2.153 1.959,2.231c0,0.078 0.474,0.457 1.054,0.842c0.733,0.487 1.135,0.907 1.322,1.382c0.147,0.376 0.366,0.853 0.487,1.06c0.533,0.917 0.9,1.8 0.9,2.169c0,0.22 0.286,1.092 0.635,1.938c0.895,2.165 1.575,3.911 1.716,4.407c0.096,0.336 0.257,0.424 0.779,0.424c0.674,0 1.364,-0.271 1.629,-0.64c0.082,-0.114 0.096,-0.897 0.032,-1.739c-0.096,-1.248 -0.057,-1.65 0.209,-2.163c0.54,-1.045 1.719,-2.502 2.571,-3.178c0.441,-0.35 1.085,-0.895 1.431,-1.21c0.641,-0.584 2.288,-2.616 2.288,-2.822c0,-0.063 0.296,-0.738 0.659,-1.502c0.634,-1.337 0.658,-1.467 0.658,-3.558c0,-1.245 -0.08,-2.221 -0.188,-2.288c-0.103,-0.064 -0.188,-0.363 -0.188,-0.666c0,-0.43 0.103,-0.575 0.473,-0.668c0.266,-0.067 0.591,-0.021 0.743,0.106c0.149,0.123 0.444,0.17 0.656,0.103c0.65,-0.207 2.976,0.655 3.865,1.432c1.741,1.52 4.885,3.415 9.222,5.561c2.588,1.279 5.289,2.663 6.003,3.075c0.715,0.411 1.41,0.748 1.546,0.748c0.25,0 0.637,0.562 0.637,0.924c0,0.108 -0.209,0.333 -0.463,0.5c-0.384,0.251 -0.577,0.266 -1.117,0.088c-0.36,-0.119 -0.686,-0.311 -0.724,-0.427c-0.173,-0.519 -0.661,0.066 -0.776,0.929c-0.145,1.095 -0.493,1.64 -1.329,2.08c-0.607,0.32 -2.553,2.487 -2.553,2.842c0,0.099 -0.276,0.518 -0.612,0.933c-0.336,0.415 -0.993,1.318 -1.458,2.006c-0.466,0.688 -1.269,1.818 -1.784,2.51c-0.515,0.691 -1.072,1.511 -1.238,1.822c-0.165,0.31 -0.673,1.273 -1.128,2.14c-0.455,0.866 -1.084,1.771 -1.397,2.011c-0.604,0.462 -0.808,0.807 -1.879,3.179c-0.372,0.823 -0.791,1.627 -0.93,1.787c-0.14,0.16 -0.386,0.824 -0.548,1.474c-0.26,1.043 -0.263,1.275 -0.024,1.953c0.342,0.968 0.348,2.245 0.015,3.041c-0.141,0.338 -0.67,0.977 -1.176,1.421c-0.575,0.505 -1.13,1.241 -1.484,1.967c-0.686,1.412 -1.848,2.384 -2.849,2.384c-0.546,0 -0.836,0.18 -1.744,1.082c-0.598,0.595 -1.238,1.378 -1.421,1.741c-0.184,0.362 -0.487,0.828 -0.674,1.035c-0.188,0.207 -0.733,1.392 -1.211,2.634c-0.479,1.242 -0.999,2.454 -1.156,2.694c-0.157,0.24 -0.521,1.279 -0.81,2.309c-0.564,2.007 -0.867,2.484 -1.89,2.967c-0.854,0.405 -2.431,3.132 -2.443,4.229c-0.007,0.582 -0.15,0.86 -0.742,1.446c-0.403,0.4 -0.952,1.187 -1.218,1.751c-0.49,1.036 -0.757,1.259 -1.498,1.254c-0.423,-0.003 -1.81,-0.443 -2.414,-0.766c-0.234,-0.125 -0.346,-0.121 -0.346,0.012c0,0.348 -1.201,0.944 -1.882,0.935c-0.362,-0.005 -0.955,-0.133 -1.317,-0.284l0,0Zm66.323,-31.686c-0.21,-0.085 -0.491,-0.285 -0.623,-0.444c-0.384,-0.463 -3.51,-6.715 -3.876,-7.75c-0.182,-0.518 -0.544,-1.385 -0.805,-1.928c-0.549,-1.147 -0.601,-1.013 1.222,-3.172c4.756,-5.634 7.961,-11.253 10.237,-17.951c0.82,-2.412 3.353,-10.84 3.357,-11.172c0.011,-0.779 0.345,-0.683 3.852,1.096c1.947,0.988 3.615,1.797 3.708,1.797c0.092,0 0.411,0.18 0.709,0.4c0.453,0.335 0.632,0.368 1.102,0.204c0.778,-0.271 1.429,0.171 1.291,0.877c-0.229,1.172 -0.53,2.147 -0.78,2.53c-0.148,0.226 -0.391,0.881 -0.541,1.456c-0.166,0.64 -0.682,1.648 -1.326,2.593c-0.589,0.866 -1.148,1.938 -1.269,2.435c-0.394,1.618 -2.66,5.763 -3.28,6c-0.149,0.057 -0.27,0.199 -0.27,0.315c0,0.235 -0.788,2.235 -0.939,2.383c-0.053,0.052 -0.317,0.56 -0.588,1.129c-0.271,0.569 -0.795,1.431 -1.164,1.914c-0.369,0.484 -0.806,1.139 -0.97,1.457c-0.164,0.317 -0.635,0.749 -1.047,0.959c-0.778,0.397 -0.914,0.69 -0.514,1.11c0.192,0.202 0.158,0.224 -0.188,0.12c-0.523,-0.159 -0.539,0.075 -0.047,0.701c0.207,0.263 0.376,0.56 0.376,0.661c0,0.444 -0.946,2.247 -1.402,2.671c-0.277,0.257 -0.68,0.765 -0.898,1.129c-0.217,0.364 -0.541,0.832 -0.721,1.039c-0.179,0.207 -0.387,0.757 -0.462,1.223c-0.153,0.956 -0.358,1.426 -0.865,1.984c-0.192,0.212 -0.517,0.871 -0.721,1.464c-0.204,0.593 -0.501,1.209 -0.661,1.369c-0.16,0.159 -0.291,0.449 -0.291,0.642c0,0.352 -0.664,0.949 -1.03,0.927c-0.106,-0.007 -0.365,-0.082 -0.576,-0.168l0,0Zm-8.273,-15.946c-0.414,-0.584 -1.077,-1.442 -1.473,-1.906c-0.396,-0.463 -1.095,-1.411 -1.553,-2.106c-0.457,-0.695 -1.033,-1.465 -1.28,-1.712c-0.998,-1 -2.959,-3.486 -3.058,-3.876c-0.058,-0.229 -0.265,-0.467 -0.459,-0.528c-0.194,-0.062 -0.503,-0.301 -0.687,-0.531c-0.336,-0.421 -1.731,-1.092 -2.78,-1.336c-0.31,-0.072 -0.946,-0.372 -1.411,-0.667c-0.466,-0.294 -1.44,-0.822 -2.164,-1.174c-1.628,-0.788 -4.218,-2.376 -5.045,-3.092c-0.339,-0.294 -1.333,-0.865 -2.208,-1.269c-5.454,-2.516 -8.106,-3.923 -12.787,-6.785c-3.378,-2.064 -3.92,-2.363 -4.507,-2.48c-0.759,-0.152 -1.014,-0.655 -0.905,-1.789c0.069,-0.719 0.266,-1.144 0.927,-1.995c0.461,-0.595 1.117,-1.548 1.458,-2.117c0.342,-0.569 0.818,-1.247 1.059,-1.505c0.241,-0.259 0.704,-1.148 1.028,-1.976c0.324,-0.828 0.834,-2.014 1.132,-2.634c0.298,-0.621 0.849,-1.849 1.224,-2.729c0.376,-0.88 0.877,-1.98 1.114,-2.446c0.238,-0.466 0.588,-1.27 0.779,-1.788c0.192,-0.517 0.52,-1.206 0.73,-1.531c0.211,-0.324 0.525,-0.85 0.699,-1.168c0.552,-1.009 2.194,-1.439 3.419,-0.894c0.326,0.145 1.101,0.488 1.722,0.762c1.921,0.848 4.84,2.374 5.967,3.118c0.591,0.39 1.657,0.932 2.369,1.204c0.713,0.273 2.11,1.022 3.105,1.666c3.315,2.146 5.276,3.278 8.881,5.126c1.966,1.008 4.126,2.149 4.798,2.536c2.679,1.541 12.724,6.211 13.36,6.211c0.087,0 0.552,0.169 1.035,0.376c0.84,0.36 0.872,0.402 0.756,0.988c-0.066,0.336 -0.194,0.823 -0.283,1.082c-0.089,0.258 -0.348,1.105 -0.574,1.881c-0.227,0.777 -0.605,2.047 -0.84,2.823c-0.236,0.776 -0.576,1.919 -0.757,2.54c-0.968,3.321 -2.495,7.414 -3.51,9.409c-0.522,1.028 -1.76,2.839 -2.349,3.439c-0.13,0.133 -0.979,1.191 -1.886,2.353c-0.908,1.161 -1.846,2.323 -2.084,2.581c-0.239,0.259 -0.822,1.042 -1.297,1.741c-0.475,0.698 -0.874,1.268 -0.888,1.266c-0.013,-0.002 -0.363,-0.483 -0.777,-1.068l0,0Zm-2.442,-39.692c-0.723,-0.348 -1.531,-0.633 -1.797,-0.633c-0.265,0 -1.114,-0.412 -1.885,-0.916c-0.966,-0.631 -1.69,-0.958 -2.328,-1.051c-1.016,-0.149 -1.5,-0.406 -2.689,-1.43c-0.435,-0.375 -1.155,-0.855 -1.599,-1.067c-2.929,-1.395 -3.803,-1.837 -5.212,-2.636c-0.87,-0.494 -1.752,-1.127 -1.96,-1.407c-0.519,-0.7 -0.626,-2.265 -0.228,-3.348c0.391,-1.063 0.794,-2.55 1.133,-4.179c0.144,-0.694 0.341,-1.413 0.438,-1.599c0.096,-0.186 0.231,-0.728 0.3,-1.206c0.217,-1.496 0.342,-1.569 2.794,-1.64c2.895,-0.084 6.124,0.555 7.941,1.571c1.291,0.721 1.668,1.2 1.893,2.396c0.221,1.181 0.88,1.411 1.087,0.38c0.129,-0.638 0.985,-1.18 1.864,-1.18c0.492,0 0.793,0.162 1.314,0.706c0.372,0.388 0.74,0.917 0.818,1.176c0.202,0.669 0.789,1.015 1.775,1.043c1.379,0.039 1.481,0.068 1.605,0.459c0.065,0.205 0.409,0.861 0.764,1.458c0.356,0.597 0.838,1.411 1.071,1.808c0.233,0.397 0.708,1.109 1.056,1.581c0.587,0.798 0.618,0.909 0.428,1.545c-0.113,0.376 -0.495,1.023 -0.849,1.437c-0.354,0.413 -0.783,1.087 -0.954,1.496c-0.171,0.41 -0.478,0.915 -0.683,1.122c-0.205,0.207 -0.731,0.92 -1.167,1.585c-0.824,1.255 -0.895,1.372 -1.201,1.979c-0.102,0.2 -0.433,0.44 -0.736,0.531c-0.303,0.091 -0.762,0.262 -1.021,0.379c-0.259,0.116 -0.513,0.226 -0.565,0.243c-0.051,0.017 -0.685,-0.254 -1.407,-0.603l0,0Z" style="fill:#fff;fill-rule:nonzero;stroke:#bddc59;stroke-opacity:0;stroke-width:1px;"/><path d="M260.587,158.411c0,-9.684 -3.847,-18.971 -10.695,-25.818c-6.847,-6.847 -16.134,-10.694 -25.817,-10.694c-49.643,0 -137.92,0 -187.563,0c-9.684,0 -18.971,3.847 -25.818,10.694c-6.847,6.847 -10.694,16.134 -10.694,25.818c0,0 0,0 0,0c0,9.684 3.847,18.971 10.694,25.818c6.847,6.847 16.134,10.694 25.818,10.694c49.643,0 137.92,0 187.563,0c9.683,0 18.97,-3.847 25.817,-10.694c6.848,-6.847 10.695,-16.134 10.695,-25.818c0,0 0,0 0,0Z" style="fill:#002549;"/><g><path d="M32.411,170.449l-5.545,0c-0.434,0 -0.748,-0.097 -0.942,-0.291c-0.194,-0.194 -0.291,-0.508 -0.291,-0.941l0,-16.808l-5.032,0c-0.433,0 -0.747,-0.097 -0.941,-0.291c-0.194,-0.194 -0.291,-0.508 -0.291,-0.941l0,-4.142c0,-0.434 0.097,-0.748 0.291,-0.942c0.194,-0.194 0.508,-0.291 0.941,-0.291l18.074,0c0.434,0 0.748,0.097 0.942,0.291c0.194,0.194 0.291,0.508 0.291,0.942l0,4.142c0,0.433 -0.097,0.747 -0.291,0.941c-0.194,0.194 -0.508,0.291 -0.942,0.291l-5.032,0l0,16.808c0,0.433 -0.097,0.747 -0.291,0.941c-0.194,0.194 -0.507,0.291 -0.941,0.291Z" style="fill:#fff;fill-rule:nonzero;"/><path d="M43.913,170.449c-0.434,0 -0.748,-0.097 -0.942,-0.291c-0.194,-0.194 -0.291,-0.508 -0.291,-0.941l0,-4.074c0,-0.433 0.097,-0.747 0.291,-0.941c0.194,-0.194 0.508,-0.291 0.942,-0.291l3.389,0l0,-11.502l-3.389,0c-0.434,0 -0.748,-0.097 -0.942,-0.291c-0.194,-0.194 -0.291,-0.508 -0.291,-0.941l0,-4.142c0,-0.434 0.097,-0.748 0.291,-0.942c0.194,-0.194 0.508,-0.291 0.942,-0.291l14.582,0c0.434,0 0.748,0.097 0.942,0.291c0.194,0.194 0.291,0.508 0.291,0.942l0,4.142c0,0.433 -0.097,0.747 -0.291,0.941c-0.194,0.194 -0.508,0.291 -0.942,0.291l-3.32,0l0,11.502l3.32,0c0.434,0 0.748,0.097 0.942,0.291c0.194,0.194 0.291,0.508 0.291,0.941l0,4.074c0,0.433 -0.097,0.747 -0.291,0.941c-0.194,0.194 -0.508,0.291 -0.942,0.291l-14.582,0Z" style="fill:#fff;fill-rule:nonzero;"/><path d="M70.305,170.449l-5.135,0c-0.433,0 -0.747,-0.097 -0.941,-0.291c-0.194,-0.194 -0.291,-0.508 -0.291,-0.941l0,-22.182c0,-0.434 0.097,-0.748 0.291,-0.942c0.194,-0.194 0.508,-0.291 0.941,-0.291l3.56,0c0.434,0 0.805,0.069 1.113,0.206c0.308,0.137 0.61,0.376 0.907,0.719l6.641,7.599l0,-7.291c0,-0.434 0.097,-0.748 0.291,-0.942c0.194,-0.194 0.508,-0.291 0.941,-0.291l5.135,0c0.434,0 0.747,0.097 0.941,0.291c0.194,0.194 0.291,0.508 0.291,0.942l0,22.182c0,0.433 -0.097,0.747 -0.291,0.941c-0.194,0.194 -0.507,0.291 -0.941,0.291l-5.135,0c-0.433,0 -0.747,-0.097 -0.941,-0.291c-0.194,-0.194 -0.291,-0.508 -0.291,-0.941l0,-4.211l-5.854,-7.086l0,11.297c0,0.433 -0.097,0.747 -0.291,0.941c-0.194,0.194 -0.507,0.291 -0.941,0.291Z" style="fill:#fff;fill-rule:nonzero;"/><path d="M116.243,170.449l-10.782,0c-2.853,0 -4.97,-0.571 -6.35,-1.712c-1.381,-1.141 -2.071,-2.898 -2.071,-5.271l0,-10.68c0,-2.374 0.69,-4.131 2.071,-5.272c1.38,-1.141 3.497,-1.712 6.35,-1.712l8.557,0c0.434,0 0.748,0.097 0.942,0.291c0.194,0.194 0.291,0.508 0.291,0.942l0,4.142c0,0.433 -0.097,0.747 -0.291,0.941c-0.194,0.194 -0.508,0.291 -0.942,0.291l-7.12,0c-0.707,0 -1.232,0.143 -1.574,0.428c-0.343,0.285 -0.514,0.713 -0.514,1.284l0,8.181c0,0.57 0.131,0.993 0.394,1.266c0.262,0.274 0.656,0.411 1.181,0.411l3.32,0l0,-5.34c0,-0.433 0.097,-0.747 0.291,-0.941c0.194,-0.194 0.508,-0.291 0.942,-0.291l5.305,0c0.434,0 0.748,0.097 0.942,0.291c0.194,0.194 0.291,0.508 0.291,0.941l0,10.578c0,0.433 -0.097,0.747 -0.291,0.941c-0.194,0.194 -0.508,0.291 -0.942,0.291Z" style="fill:#fff;fill-rule:nonzero;"/><path d="M130.586,152.991l-1.609,5.203l5.375,0l-1.609,-5.203c-0.091,-0.205 -0.188,-0.354 -0.291,-0.445c-0.103,-0.091 -0.223,-0.137 -0.36,-0.137l-0.855,0c-0.137,0 -0.257,0.046 -0.36,0.137c-0.102,0.091 -0.199,0.24 -0.291,0.445Zm-1.951,16.226c0,0.433 -0.097,0.747 -0.291,0.941c-0.194,0.194 -0.508,0.291 -0.941,0.291l-5.032,0c-0.434,0 -0.748,-0.097 -0.942,-0.291c-0.194,-0.194 -0.291,-0.508 -0.291,-0.941l0,-9.037c0,-0.685 0.109,-1.472 0.326,-2.362c0.216,-0.89 0.553,-1.929 1.009,-3.115l2.979,-7.771c0.137,-0.388 0.348,-0.673 0.633,-0.856c0.285,-0.182 0.656,-0.274 1.112,-0.274l9.209,0c0.433,0 0.793,0.092 1.078,0.274c0.285,0.183 0.496,0.468 0.633,0.856l2.978,7.771c0.457,1.186 0.793,2.225 1.01,3.115c0.217,0.89 0.325,1.677 0.325,2.362l0,9.037c0,0.433 -0.097,0.747 -0.291,0.941c-0.194,0.194 -0.507,0.291 -0.941,0.291l-5.169,0c-0.456,0 -0.793,-0.097 -1.01,-0.291c-0.217,-0.194 -0.325,-0.508 -0.325,-0.941l0,-4.793l-6.059,0l0,4.793Z" style="fill:#fff;fill-rule:nonzero;"/><path d="M154.377,151.964l0,4.382l2.567,0c0.594,0 0.993,-0.154 1.198,-0.462c0.206,-0.309 0.309,-0.691 0.309,-1.147l0,-1.164c0,-0.456 -0.103,-0.839 -0.309,-1.147c-0.205,-0.308 -0.604,-0.462 -1.198,-0.462l-2.567,0Zm-1.232,18.485l-5.272,0c-0.434,0 -0.747,-0.097 -0.941,-0.291c-0.194,-0.194 -0.291,-0.508 -0.291,-0.941l0,-22.182c0,-0.434 0.097,-0.748 0.291,-0.942c0.194,-0.194 0.507,-0.291 0.941,-0.291l11.399,0c2.556,0 4.319,0.531 5.289,1.592c0.97,1.061 1.455,2.436 1.455,4.125l0,1.575c0,0.958 -0.143,1.774 -0.428,2.447c-0.285,0.673 -0.782,1.158 -1.489,1.455c1.232,0.137 2.23,0.639 2.995,1.506c0.764,0.867 1.147,2.02 1.147,3.458l0,7.257c0,0.433 -0.097,0.747 -0.291,0.941c-0.194,0.194 -0.508,0.291 -0.942,0.291l-5.305,0c-0.434,0 -0.748,-0.097 -0.942,-0.291c-0.194,-0.194 -0.291,-0.508 -0.291,-0.941l0,-5.238c0,-0.502 -0.097,-0.873 -0.291,-1.112c-0.194,-0.24 -0.53,-0.36 -1.01,-0.36l-4.792,0l0,6.71c0,0.433 -0.097,0.747 -0.291,0.941c-0.194,0.194 -0.508,0.291 -0.941,0.291Z" style="fill:#fff;fill-rule:nonzero;"/><path d="M184.843,170.449l-11.536,0c-0.434,0 -0.747,-0.097 -0.941,-0.291c-0.194,-0.194 -0.291,-0.508 -0.291,-0.941l0,-22.182c0,-0.434 0.097,-0.748 0.291,-0.942c0.194,-0.194 0.507,-0.291 0.941,-0.291l11.536,0c2.852,0 4.969,0.571 6.35,1.712c1.38,1.141 2.071,2.898 2.071,5.272l0,10.68c0,2.373 -0.691,4.13 -2.071,5.271c-1.381,1.141 -3.498,1.712 -6.35,1.712Zm-4.998,-18.108l0,11.638l4.074,0c0.547,0 0.952,-0.137 1.215,-0.411c0.262,-0.273 0.393,-0.696 0.393,-1.266l0,-8.318c0,-0.571 -0.131,-0.987 -0.393,-1.25c-0.263,-0.262 -0.668,-0.393 -1.215,-0.393l-4.074,0Z" style="fill:#fff;fill-rule:nonzero;"/><path d="M214.727,170.449l-15.884,0c-0.433,0 -0.747,-0.097 -0.941,-0.291c-0.194,-0.194 -0.291,-0.508 -0.291,-0.941l0,-22.182c0,-0.434 0.097,-0.748 0.291,-0.942c0.194,-0.194 0.508,-0.291 0.941,-0.291l15.884,0c0.433,0 0.747,0.097 0.941,0.291c0.194,0.194 0.291,0.508 0.291,0.942l0,4.005c0,0.433 -0.097,0.747 -0.291,0.941c-0.194,0.194 -0.508,0.291 -0.941,0.291l-9.448,0l0,2.636l6.675,0c0.434,0 0.747,0.097 0.941,0.291c0.194,0.194 0.291,0.508 0.291,0.941l0,3.663c0,0.434 -0.097,0.747 -0.291,0.941c-0.194,0.194 -0.507,0.291 -0.941,0.291l-6.675,0l0,2.944l9.448,0c0.433,0 0.747,0.097 0.941,0.291c0.194,0.194 0.291,0.508 0.291,0.942l0,4.005c0,0.433 -0.097,0.747 -0.291,0.941c-0.194,0.194 -0.508,0.291 -0.941,0.291Z" style="fill:#fff;fill-rule:nonzero;"/><path d="M226.365,170.449l-5.134,0c-0.434,0 -0.748,-0.097 -0.942,-0.291c-0.194,-0.194 -0.291,-0.508 -0.291,-0.941l0,-22.182c0,-0.434 0.097,-0.748 0.291,-0.942c0.194,-0.194 0.508,-0.291 0.942,-0.291l3.56,0c0.433,0 0.804,0.069 1.112,0.206c0.308,0.137 0.611,0.376 0.907,0.719l6.641,7.599l0,-7.291c0,-0.434 0.097,-0.748 0.291,-0.942c0.194,-0.194 0.508,-0.291 0.942,-0.291l5.134,0c0.434,0 0.748,0.097 0.942,0.291c0.194,0.194 0.291,0.508 0.291,0.942l0,22.182c0,0.433 -0.097,0.747 -0.291,0.941c-0.194,0.194 -0.508,0.291 -0.942,0.291l-5.134,0c-0.434,0 -0.748,-0.097 -0.942,-0.291c-0.194,-0.194 -0.291,-0.508 -0.291,-0.941l0,-4.211l-5.853,-7.086l0,11.297c0,0.433 -0.097,0.747 -0.291,0.941c-0.194,0.194 -0.508,0.291 -0.942,0.291Z" style="fill:#fff;fill-rule:nonzero;"/></g></g></svg>