<?xml version="1.0" encoding="UTF-8" standalone="no"?><!DOCTYPE svg PUBLIC "-//W3C//DTD SVG 1.1//EN" "http://www.w3.org/Graphics/SVG/1.1/DTD/svg11.dtd"><svg width="100%" height="100%" viewBox="0 0 261 195" version="1.1" xmlns="http://www.w3.org/2000/svg" xmlns:xlink="http://www.w3.org/1999/xlink" xml:space="preserve" style="fill-rule:evenodd;clip-rule:evenodd;stroke-linejoin:round;stroke-miterlimit:1.41421;"><circle cx="130.293" cy="79.205" r="79.205" style="fill:#002554;"/><path id="path3351" d="M104.336,121.645c-0.323,-0.135 -0.707,-0.452 -0.853,-0.706c-0.166,-0.286 -0.763,-0.713 -1.585,-1.132c-0.726,-0.37 -1.648,-0.922 -2.049,-1.228c-0.4,-0.306 -0.973,-0.64 -1.272,-0.743c-0.551,-0.189 -2.334,-1.782 -2.686,-2.399c-0.106,-0.185 -0.257,-0.714 -0.336,-1.177c-0.337,-1.963 -0.343,-2.154 -0.079,-2.347c0.141,-0.103 0.342,-0.505 0.446,-0.893c0.252,-0.934 0.959,-2.326 1.319,-2.595c0.297,-0.222 1.349,-1.742 1.72,-2.485c0.22,-0.438 1.293,-1.66 3.121,-3.553c0.593,-0.614 1.078,-1.2 1.078,-1.302c0,-0.103 0.397,-0.587 0.882,-1.075c0.485,-0.488 1.147,-1.206 1.471,-1.595c0.323,-0.389 0.866,-0.916 1.206,-1.171c0.38,-0.285 0.78,-0.821 1.037,-1.389c1.371,-3.03 1.798,-4.051 2.056,-4.921c0.281,-0.949 0.28,-0.98 -0.053,-1.345c-0.608,-0.664 -0.904,-1.466 -0.999,-2.697c-0.056,-0.729 -0.245,-1.537 -0.479,-2.046c-0.556,-1.208 -1.105,-3.896 -1.256,-6.15c-0.076,-1.124 -0.236,-2.156 -0.378,-2.438c-0.136,-0.268 -0.296,-0.829 -0.357,-1.245c-0.278,-1.92 -0.465,-2.331 -1.418,-3.116c-0.501,-0.412 -1.024,-0.75 -1.163,-0.75c-0.336,0 -2.273,-1.17 -2.465,-1.489c-0.344,-0.571 -1.196,-2.824 -1.321,-2.699c-0.06,0.06 -1.363,-0.501 -1.787,-0.893c-0.52,-0.482 -1.206,0.709 -1.496,1.365c-0.119,0.267 -0.402,0.702 -0.631,0.967c-0.228,0.264 -0.727,0.84 -1.108,1.279c-0.402,0.464 -1.124,1.021 -1.722,1.329c-0.566,0.292 -1.231,0.635 -1.479,0.762c-0.247,0.128 -1.193,0.275 -2.101,0.327c-1.475,0.085 -1.797,0.048 -3.032,-0.348c-0.77,-0.247 -1.708,-0.692 -2.119,-1.006c-0.407,-0.31 -1.016,-0.695 -1.354,-0.856c-0.722,-0.343 -3.371,-2.616 -3.645,-3.128c-0.104,-0.195 -0.157,-0.519 -0.119,-0.722c0.039,-0.202 -0.029,-0.462 -0.152,-0.576c-0.326,-0.305 -0.274,-0.594 0.198,-1.103c0.231,-0.249 0.42,-0.51 0.42,-0.58c0,-0.194 1.022,-1.106 1.681,-1.5c0.324,-0.194 1.192,-0.808 1.929,-1.366c0.738,-0.558 1.552,-1.061 1.811,-1.117c0.259,-0.057 0.707,-0.303 0.997,-0.547c0.476,-0.4 0.688,-0.449 2.208,-0.51c0.975,-0.04 2.067,0.018 2.599,0.137c1.944,0.435 5.136,3.255 6.222,4.513l1.787,0.893l-0.894,-1.786c-0.058,-0.324 -0.427,-1.07 -0.497,-1.554c-0.07,-0.484 -0.294,-1.108 -0.497,-1.387c-0.203,-0.278 -0.538,-0.752 -0.743,-1.053c-0.206,-0.3 -0.653,-0.924 -0.993,-1.386c-0.761,-1.033 -2.229,-3.822 -2.787,-5.295c-0.227,-0.601 -0.5,-1.197 -0.606,-1.325c-0.469,-0.565 -2.636,-4.996 -2.636,-5.39c0,-0.154 -0.111,-0.427 -0.247,-0.606c-0.277,-0.367 -0.335,-1.528 -0.107,-2.13c0.232,-0.608 1.355,-1.306 2.102,-1.306c0.497,0 0.746,0.115 1.126,0.522c0.268,0.287 0.488,0.631 0.488,0.763c0,0.133 0.332,0.598 0.738,1.033c0.702,0.751 2.623,3.466 2.623,3.706c0,0.062 0.414,0.679 0.92,1.372c0.506,0.693 1.107,1.609 1.335,2.034c0.229,0.426 0.606,1.001 0.839,1.278c0.467,0.555 2.712,4.88 3.188,6.142c0.166,0.439 0.359,0.798 0.43,0.798c0.071,0 0.271,0.322 0.445,0.715c0.63,1.424 2.155,3.541 3.868,5.368c0.962,1.027 1.749,1.924 1.749,1.994c0,0.07 0.424,0.408 0.942,0.752c0.655,0.435 1.014,0.81 1.181,1.235c0.131,0.335 0.327,0.761 0.435,0.946c0.477,0.819 0.804,1.608 0.804,1.937c0,0.197 0.255,0.976 0.568,1.731c0.799,1.934 1.406,3.495 1.532,3.937c0.085,0.3 0.23,0.379 0.696,0.379c0.602,0 1.218,-0.242 1.455,-0.572c0.073,-0.102 0.086,-0.801 0.028,-1.553c-0.085,-1.115 -0.05,-1.474 0.187,-1.932c0.483,-0.934 1.536,-2.235 2.297,-2.839c0.394,-0.313 0.969,-0.799 1.278,-1.081c0.573,-0.522 2.044,-2.336 2.044,-2.521c0,-0.055 0.265,-0.659 0.588,-1.341c0.567,-1.194 0.588,-1.311 0.588,-3.179c0,-1.111 -0.071,-1.983 -0.168,-2.043c-0.092,-0.057 -0.168,-0.325 -0.168,-0.595c0,-0.384 0.092,-0.514 0.423,-0.597c0.238,-0.06 0.528,-0.018 0.664,0.095c0.133,0.11 0.396,0.152 0.585,0.092c0.581,-0.185 2.659,0.585 3.453,1.279c1.555,1.358 4.364,3.051 8.238,4.967c2.311,1.143 4.724,2.379 5.362,2.747c0.638,0.368 1.259,0.669 1.381,0.669c0.223,0 0.568,0.502 0.568,0.825c0,0.096 -0.186,0.297 -0.413,0.446c-0.343,0.225 -1.779,0.575 -2.41,0.855c-0.859,0.383 -0.368,1.137 -1.115,1.531c-0.542,0.285 -2.281,2.221 -2.281,2.538c0,0.088 -0.245,0.463 -0.546,0.834c-0.3,0.37 -0.887,1.177 -1.303,1.791c-0.416,0.615 -1.133,1.624 -1.593,2.242c-0.46,0.618 -0.958,1.35 -1.105,1.628c-0.148,0.277 -0.602,1.137 -1.008,1.911c-0.407,0.774 -0.969,1.582 -1.248,1.796c-0.54,0.413 -0.722,0.721 -1.679,2.84c-0.332,0.735 -0.706,1.454 -0.83,1.597c-0.125,0.143 -0.345,0.735 -0.49,1.317c-0.232,0.93 -0.234,1.138 -0.021,1.744c0.305,0.864 0.311,2.005 0.014,2.716c-0.126,0.302 -0.599,0.873 -1.051,1.269c-0.514,0.451 -1.01,1.109 -1.326,1.758c-0.613,1.26 -1.651,2.129 -2.544,2.129c-0.488,0 -0.748,0.161 -1.558,0.966c-0.535,0.532 -1.106,1.232 -1.27,1.555c-0.164,0.324 -0.435,0.74 -0.602,0.925c-0.167,0.185 -0.654,1.243 -1.082,2.353c-0.428,1.109 -0.892,2.192 -1.032,2.407c-0.14,0.214 -0.466,1.142 -0.724,2.062c-0.503,1.793 -0.774,2.218 -1.688,2.65c-0.763,0.362 -2.171,2.798 -2.182,3.777c-0.006,0.52 -0.134,0.768 -0.663,1.292c-0.36,0.357 -0.85,1.061 -1.088,1.564c-0.438,0.925 -0.676,1.125 -1.338,1.121c-0.378,-0.003 -1.617,-0.396 -2.156,-0.685c-0.209,-0.112 -0.309,-0.108 -0.309,0.011c0,0.311 -1.073,0.843 -1.681,0.835c-0.324,-0.005 -0.853,-0.119 -1.177,-0.254l0,0Zm59.243,-28.303c-0.188,-0.076 -0.439,-0.255 -0.557,-0.397c-0.342,-0.413 -3.135,-5.997 -3.461,-6.922c-0.163,-0.463 -0.487,-1.238 -0.719,-1.723c-0.491,-1.024 -0.537,-0.905 1.09,-2.833c4.249,-5.033 7.112,-10.052 9.145,-16.034c0.732,-2.155 2.995,-9.684 2.999,-9.98c0.009,-0.695 0.308,-0.61 3.441,0.979c1.739,0.883 3.229,1.605 3.311,1.605c0.083,0 0.368,0.161 0.634,0.358c0.404,0.299 0.565,0.329 0.985,0.182c0.695,-0.242 1.276,0.153 1.152,0.783c-0.204,1.047 -0.473,1.918 -0.696,2.26c-0.133,0.202 -0.35,0.787 -0.484,1.301c-0.148,0.571 -0.609,1.471 -1.184,2.316c-0.526,0.773 -1.026,1.731 -1.134,2.175c-0.352,1.445 -2.376,5.147 -2.93,5.36c-0.132,0.051 -0.241,0.177 -0.241,0.281c0,0.21 -0.703,1.996 -0.838,2.128c-0.047,0.047 -0.284,0.5 -0.526,1.009c-0.242,0.508 -0.71,1.278 -1.039,1.71c-0.33,0.432 -0.72,1.017 -0.867,1.301c-0.146,0.283 -0.567,0.669 -0.935,0.857c-0.695,0.354 -0.816,0.616 -0.459,0.992c0.172,0.179 0.141,0.199 -0.168,0.106c-0.467,-0.141 -0.481,0.068 -0.042,0.626c0.185,0.235 0.336,0.501 0.336,0.59c0,0.398 -0.845,2.008 -1.253,2.387c-0.247,0.23 -0.607,0.684 -0.801,1.009c-0.194,0.325 -0.484,0.742 -0.645,0.927c-0.16,0.185 -0.345,0.677 -0.412,1.093c-0.137,0.853 -0.32,1.274 -0.773,1.772c-0.172,0.19 -0.462,0.778 -0.644,1.308c-0.182,0.529 -0.448,1.079 -0.591,1.222c-0.143,0.143 -0.259,0.401 -0.259,0.574c0,0.314 -0.593,0.848 -0.92,0.828c-0.095,-0.006 -0.327,-0.073 -0.515,-0.15l0,0Zm-7.39,-14.243c-0.369,-0.523 -0.962,-1.289 -1.316,-1.703c-0.353,-0.414 -0.978,-1.261 -1.386,-1.881c-0.409,-0.621 -0.924,-1.309 -1.144,-1.53c-0.891,-0.893 -2.643,-3.113 -2.732,-3.462c-0.052,-0.205 -0.236,-0.417 -0.409,-0.472c-0.174,-0.055 -0.45,-0.268 -0.614,-0.474c-0.3,-0.376 -1.547,-0.975 -2.484,-1.193c-0.277,-0.065 -0.844,-0.333 -1.26,-0.596c-0.416,-0.263 -1.286,-0.735 -1.933,-1.048c-1.454,-0.705 -3.768,-2.123 -4.506,-2.762c-0.303,-0.263 -1.191,-0.773 -1.973,-1.134c-4.872,-2.248 -7.24,-3.505 -11.422,-6.061c-3.017,-1.844 -3.502,-2.11 -4.025,-2.215c-0.678,-0.136 -0.906,-0.586 -0.809,-1.598c0.062,-0.643 0.238,-1.022 0.828,-1.782c0.412,-0.532 0.998,-1.383 1.303,-1.891c0.305,-0.509 0.73,-1.114 0.946,-1.345c0.215,-0.231 0.628,-1.025 0.918,-1.765c0.289,-0.739 0.744,-1.798 1.011,-2.353c0.266,-0.554 0.758,-1.651 1.093,-2.437c0.336,-0.786 0.783,-1.769 0.995,-2.185c0.213,-0.416 0.526,-1.135 0.697,-1.597c0.17,-0.462 0.464,-1.077 0.652,-1.367c0.187,-0.29 0.468,-0.76 0.623,-1.044c0.493,-0.902 1.961,-1.286 3.054,-0.799c0.292,0.13 0.984,0.436 1.538,0.681c1.716,0.758 4.324,2.121 5.33,2.785c0.528,0.349 1.481,0.833 2.117,1.076c0.636,0.243 1.884,0.913 2.773,1.488c2.961,1.917 4.713,2.928 7.933,4.579c1.757,0.9 3.686,1.92 4.286,2.265c2.393,1.377 11.366,5.548 11.934,5.548c0.077,0 0.493,0.151 0.924,0.335c0.75,0.322 0.779,0.36 0.676,0.883c-0.06,0.3 -0.173,0.735 -0.253,0.967c-0.08,0.231 -0.311,0.987 -0.513,1.68c-0.202,0.694 -0.54,1.828 -0.75,2.522c-0.211,0.693 -0.515,1.714 -0.677,2.269c-0.864,2.966 -2.228,6.622 -3.134,8.404c-0.467,0.918 -1.573,2.536 -2.099,3.072c-0.116,0.119 -0.874,1.064 -1.685,2.101c-0.811,1.038 -1.648,2.075 -1.861,2.306c-0.213,0.232 -0.734,0.931 -1.158,1.555c-0.424,0.624 -0.781,1.133 -0.793,1.131c-0.013,-0.002 -0.325,-0.431 -0.695,-0.953l0,0Zm-2.181,-35.455c-0.646,-0.312 -1.368,-0.566 -1.605,-0.566c-0.237,0 -0.995,-0.368 -1.684,-0.818c-0.863,-0.564 -1.51,-0.856 -2.079,-0.939c-0.908,-0.133 -1.34,-0.363 -2.402,-1.278c-0.389,-0.335 -1.032,-0.763 -1.429,-0.952c-2.616,-1.246 -3.397,-1.641 -4.655,-2.355c-0.777,-0.441 -1.565,-1.007 -1.751,-1.257c-0.464,-0.625 -0.559,-2.023 -0.204,-2.99c0.349,-0.95 0.709,-2.278 1.012,-3.733c0.129,-0.62 0.305,-1.263 0.391,-1.429c0.086,-0.165 0.207,-0.65 0.269,-1.077c0.193,-1.336 0.305,-1.401 2.495,-1.465c2.586,-0.075 5.471,0.496 7.094,1.403c1.152,0.645 1.49,1.072 1.69,2.14c0.198,1.056 0.786,1.261 0.972,0.34c0.114,-0.57 0.879,-1.054 1.664,-1.054c0.44,0 0.709,0.145 1.174,0.631c0.333,0.346 0.661,0.819 0.731,1.05c0.18,0.598 0.705,0.907 1.585,0.932c1.232,0.035 1.323,0.06 1.434,0.409c0.058,0.184 0.365,0.77 0.683,1.303c0.317,0.533 0.748,1.26 0.956,1.615c0.208,0.355 0.633,0.991 0.944,1.413c0.524,0.712 0.551,0.812 0.381,1.379c-0.1,0.337 -0.442,0.914 -0.758,1.284c-0.316,0.369 -0.7,0.971 -0.852,1.337c-0.152,0.366 -0.427,0.816 -0.61,1.001c-0.184,0.185 -0.653,0.822 -1.043,1.417c-0.736,1.12 -0.799,1.225 -1.073,1.767c-0.09,0.179 -0.386,0.393 -0.656,0.474c-0.271,0.082 -0.682,0.234 -0.913,0.339c-0.231,0.104 -0.458,0.202 -0.504,0.217c-0.046,0.015 -0.612,-0.227 -1.257,-0.538l0,0Z" style="fill:#fff;fill-rule:nonzero;stroke:#bddc65;stroke-opacity:0;stroke-width:1px;"/><path d="M260.587,158.411c0,-9.684 -3.847,-18.971 -10.695,-25.818c-6.847,-6.847 -16.134,-10.694 -25.817,-10.694c-49.643,0 -137.92,0 -187.563,0c-9.684,0 -18.971,3.847 -25.818,10.694c-6.847,6.847 -10.694,16.134 -10.694,25.818c0,0 0,0 0,0c0,9.684 3.847,18.971 10.694,25.818c6.847,6.847 16.134,10.694 25.818,10.694c49.643,0 137.92,0 187.563,0c9.683,0 18.97,-3.847 25.817,-10.694c6.848,-6.847 10.695,-16.134 10.695,-25.818c0,0 0,0 0,0Z" style="fill:#002554;"/><path d="M41.165,170.825c0,0.251 -0.701,0.451 -2.105,0.599c-1.403,0.148 -2.807,0.223 -4.21,0.223c-1.404,0 -2.294,-0.063 -2.67,-0.189c-0.377,-0.125 -0.565,-0.336 -0.565,-0.633l0,-14.719l-4.758,0c-0.251,0 -0.468,-0.32 -0.651,-0.959c-0.182,-0.639 -0.273,-1.592 -0.273,-2.858c0,-1.267 0.136,-2.408 0.41,-3.423c0.274,-1.016 0.639,-1.524 1.096,-1.524l18.519,0c0.342,0 0.576,0.32 0.702,0.959c0.125,0.639 0.188,1.563 0.188,2.773c0,1.209 -0.126,2.35 -0.377,3.423c-0.251,1.072 -0.593,1.609 -1.027,1.609l-4.279,0l0,14.719Z" style="fill:#fff;fill-rule:nonzero;"/><path d="M58.452,170.825c0,0.251 -0.696,0.451 -2.088,0.599c-1.392,0.148 -2.79,0.223 -4.193,0.223c-1.404,0 -2.299,-0.063 -2.687,-0.189c-0.388,-0.125 -0.582,-0.336 -0.582,-0.633l0,-21.292c0,-0.502 0.662,-0.998 1.985,-1.489c1.324,-0.491 2.807,-0.736 4.45,-0.736c1.461,0 2.419,0.308 2.876,0.924c0.159,0.229 0.239,0.457 0.239,0.685l0,21.908Z" style="fill:#fff;fill-rule:nonzero;"/><path d="M70.741,170.654c0,0.296 -0.701,0.536 -2.105,0.719c-1.403,0.182 -2.801,0.274 -4.193,0.274c-1.392,0 -2.282,-0.08 -2.67,-0.24c-0.388,-0.16 -0.582,-0.411 -0.582,-0.753l0,-21.018c0,-0.571 0.656,-1.096 1.968,-1.575c1.312,-0.479 2.801,-0.719 4.467,-0.719c0.594,0 1.039,0.023 1.335,0.069c0.776,0.114 1.324,0.605 1.643,1.472l3.287,8.831l0.136,0l0,-8.078c0,-0.571 0.651,-1.096 1.952,-1.575c1.3,-0.479 2.784,-0.719 4.45,-0.719c1.437,0 2.35,0.274 2.738,0.822c0.274,0.388 0.411,0.742 0.411,1.061l0,21.429c0,0.296 -0.702,0.536 -2.105,0.719c-1.404,0.182 -2.944,0.274 -4.621,0.274c-1.678,0 -2.596,-0.217 -2.756,-0.651l-3.184,-8.421l-0.171,0l0,8.079Z" style="fill:#fff;fill-rule:nonzero;"/><path d="M101.447,171.92c-0.776,0 -1.495,-0.08 -2.157,-0.239c-0.662,-0.16 -1.352,-0.497 -2.071,-1.01c-0.719,-0.514 -1.329,-1.192 -1.831,-2.037c-1.141,-1.917 -1.712,-4.804 -1.712,-8.66c0,-2.123 0.285,-3.994 0.856,-5.614c0.571,-1.621 1.289,-2.881 2.157,-3.783c0.867,-0.901 1.905,-1.637 3.115,-2.208c1.209,-0.57 2.339,-0.941 3.389,-1.112c1.049,-0.171 2.168,-0.257 3.354,-0.257c2.739,0 4.667,0.234 5.785,0.702c1.118,0.468 1.678,1.363 1.678,2.687c0,1.05 -0.194,2.185 -0.582,3.406c-0.388,1.221 -0.959,1.831 -1.712,1.831c-0.182,0 -0.958,-0.177 -2.328,-0.53c-1.369,-0.354 -2.396,-0.531 -3.08,-0.531c-1.963,0 -2.944,1.655 -2.944,4.964c0,1.666 0.228,2.904 0.684,3.714c0.457,0.81 1.027,1.261 1.712,1.352l0,-3.081c0,-0.57 0.582,-1.095 1.746,-1.575c1.164,-0.479 2.282,-0.718 3.354,-0.718c1.073,0 1.855,0.068 2.345,0.205c0.491,0.137 0.827,0.331 1.01,0.582c0.319,0.411 0.479,0.776 0.479,1.095l0,9.482c0,0.297 -0.599,0.537 -1.797,0.719c-1.198,0.183 -2.442,0.274 -3.731,0.274c-1.289,0 -2.105,-0.063 -2.448,-0.188c-0.342,-0.126 -0.536,-0.474 -0.582,-1.044l-0.239,-2.02l-0.274,0c-0.16,0.981 -0.565,1.826 -1.215,2.533c-0.651,0.708 -1.638,1.061 -2.961,1.061Z" style="fill:#fff;fill-rule:nonzero;"/><path d="M126.538,169.901c-0.045,0.662 -0.393,1.118 -1.044,1.369c-0.65,0.251 -1.82,0.377 -3.509,0.377c-1.688,0 -3.097,-0.155 -4.227,-0.463c-1.13,-0.308 -1.695,-0.701 -1.695,-1.181c0,-0.547 1.016,-4.045 3.047,-10.491c2.031,-6.447 3.195,-10.161 3.492,-11.143c0.114,-0.296 1.032,-0.542 2.755,-0.736c1.723,-0.194 3.572,-0.291 5.546,-0.291c1.974,0 3.063,0.343 3.269,1.027c4.313,14.332 6.47,21.612 6.47,21.84c0,0.228 -0.137,0.456 -0.411,0.684c-0.639,0.502 -1.906,0.754 -3.8,0.754c-4.039,0 -6.104,-0.48 -6.196,-1.438l-0.239,-2.225l-3.287,0l-0.171,1.917Zm2.739,-8.421l-0.514,-6.162l-0.753,0l-0.582,6.162l1.849,0Z" style="fill:#fff;fill-rule:nonzero;"/><path d="M151.938,170.654c0,0.296 -0.696,0.536 -2.088,0.719c-1.392,0.182 -2.79,0.274 -4.194,0.274c-1.403,0 -2.304,-0.08 -2.704,-0.24c-0.399,-0.16 -0.599,-0.411 -0.599,-0.753l0,-22.011c0,-0.593 0.747,-1.015 2.242,-1.266c1.495,-0.251 3.383,-0.377 5.666,-0.377c2.282,0 3.759,0.006 4.432,0.017c0.674,0.012 1.467,0.051 2.38,0.12c0.912,0.068 1.637,0.182 2.173,0.342c0.537,0.16 1.13,0.365 1.78,0.616c0.651,0.251 1.158,0.577 1.524,0.976c0.365,0.399 0.718,0.873 1.061,1.421c0.616,0.981 0.924,2.379 0.924,4.193c0,1.814 -0.302,3.343 -0.907,4.587c-0.605,1.244 -1.409,2.185 -2.413,2.824c2.624,4.131 3.936,6.755 3.936,7.873c0,1.118 -2.248,1.678 -6.743,1.678c-1.301,0 -2.203,-0.058 -2.705,-0.172c-0.502,-0.114 -0.821,-0.365 -0.958,-0.753l-2.225,-7.051l-0.582,-0.035l0,7.018Zm0,-12.289l0.89,0c1.323,0 1.985,-1.027 1.985,-3.081c0,-1.05 -0.177,-1.791 -0.53,-2.225c-0.354,-0.434 -0.759,-0.65 -1.216,-0.65l-1.129,0l0,5.956Z" style="fill:#fff;fill-rule:nonzero;"/><path d="M177.782,171.647l-8.078,0c-1.118,0 -1.871,-0.08 -2.259,-0.24c-0.388,-0.16 -0.582,-0.422 -0.582,-0.787l0,-21.6c0,-0.594 0.251,-1.022 0.753,-1.284c0.502,-0.262 1.369,-0.394 2.601,-0.394l7.702,0c4.382,0 7.406,0.862 9.072,2.585c1.666,1.723 2.499,4.855 2.499,9.396c0,4.542 -0.868,7.731 -2.602,9.568c-1.734,1.837 -4.77,2.756 -9.106,2.756Zm-0.273,-19.204c-0.548,0 -0.913,0.045 -1.096,0.137l0,13.829l1.301,0.137c0.685,0 1.204,-0.548 1.558,-1.643c0.353,-1.095 0.53,-2.99 0.53,-5.682c0,-2.693 -0.182,-4.496 -0.548,-5.409c-0.365,-0.913 -0.947,-1.369 -1.745,-1.369Z" style="fill:#fff;fill-rule:nonzero;"/><path d="M209.241,171.647l-14.514,0c-1.118,0 -1.871,-0.08 -2.259,-0.24c-0.388,-0.16 -0.582,-0.411 -0.582,-0.753l0,-21.669c0,-0.593 0.268,-1.015 0.804,-1.266c0.536,-0.251 1.501,-0.377 2.893,-0.377l13.761,0c0.479,0 0.719,0.793 0.719,2.379c0,1.586 -0.103,2.796 -0.309,3.629c-0.205,0.833 -0.479,1.249 -0.821,1.249c-1.483,0 -3.982,-0.148 -7.497,-0.445l0,2.294c3.378,-0.137 5.58,-0.206 6.607,-0.206c0.616,0 0.924,0.719 0.924,2.157c0,1.438 -0.12,2.527 -0.359,3.269c-0.24,0.742 -0.565,1.113 -0.976,1.113l-6.196,-0.137l0,2.19c3.971,-0.296 6.71,-0.445 8.216,-0.445c0.479,0 0.719,0.799 0.719,2.397c0,1.597 -0.103,2.807 -0.308,3.628c-0.206,0.822 -0.48,1.233 -0.822,1.233Z" style="fill:#fff;fill-rule:nonzero;"/><path d="M222.317,170.654c0,0.296 -0.701,0.536 -2.105,0.719c-1.403,0.182 -2.801,0.274 -4.193,0.274c-1.392,0 -2.282,-0.08 -2.67,-0.24c-0.388,-0.16 -0.582,-0.411 -0.582,-0.753l0,-21.018c0,-0.571 0.656,-1.096 1.968,-1.575c1.312,-0.479 2.801,-0.719 4.467,-0.719c0.594,0 1.039,0.023 1.335,0.069c0.776,0.114 1.324,0.605 1.643,1.472l3.287,8.831l0.137,0l0,-8.078c0,-0.571 0.65,-1.096 1.951,-1.575c1.3,-0.479 2.784,-0.719 4.45,-0.719c1.437,0 2.35,0.274 2.738,0.822c0.274,0.388 0.411,0.742 0.411,1.061l0,21.429c0,0.296 -0.702,0.536 -2.105,0.719c-1.404,0.182 -2.944,0.274 -4.621,0.274c-1.678,0 -2.596,-0.217 -2.756,-0.651l-3.184,-8.421l-0.171,0l0,8.079Z" style="fill:#fff;fill-rule:nonzero;"/></svg>