<?xml version="1.0" encoding="UTF-8" standalone="no"?><!DOCTYPE svg PUBLIC "-//W3C//DTD SVG 1.1//EN" "http://www.w3.org/Graphics/SVG/1.1/DTD/svg11.dtd"><svg width="100%" height="100%" viewBox="0 0 41 41" version="1.1" xmlns="http://www.w3.org/2000/svg" xmlns:xlink="http://www.w3.org/1999/xlink" xml:space="preserve" style="fill-rule:evenodd;clip-rule:evenodd;stroke-linejoin:round;stroke-miterlimit:1.41421;"><path d="M10.862,17.12l0,-8.469c0.001,-0.036 0.001,-0.072 0.004,-0.108c0.009,-0.107 0.03,-0.213 0.064,-0.316c0.069,-0.204 0.187,-0.391 0.343,-0.541c0.129,-0.124 0.284,-0.222 0.452,-0.286c0.101,-0.038 0.206,-0.064 0.313,-0.077c0.036,-0.005 0.072,-0.006 0.108,-0.009c0.036,0 0.072,0 0.108,0c0.035,0.003 0.071,0.004 0.107,0.009c0.071,0.008 0.142,0.023 0.211,0.043c0.069,0.02 0.136,0.045 0.201,0.076c0.033,0.016 0.064,0.034 0.096,0.05l7.334,4.235l7.334,-4.235l0.096,-0.05c0.088,-0.037 0.109,-0.049 0.201,-0.076c0.104,-0.03 0.211,-0.048 0.319,-0.052c0.143,-0.006 0.288,0.012 0.426,0.052c0.207,0.06 0.399,0.171 0.554,0.32c0.13,0.125 0.234,0.275 0.304,0.441c0.043,0.099 0.073,0.203 0.09,0.309c0.016,0.095 0.014,0.119 0.017,0.215l0,8.469l7.335,4.235c0.036,0.022 0.072,0.044 0.107,0.068c0.138,0.099 0.258,0.224 0.349,0.367c0.069,0.107 0.123,0.224 0.159,0.346c0.06,0.204 0.07,0.422 0.03,0.631c-0.032,0.166 -0.097,0.327 -0.189,0.47c-0.091,0.143 -0.211,0.268 -0.349,0.366c-0.035,0.025 -0.071,0.046 -0.107,0.069c-2.633,1.52 -5.339,2.918 -7.9,4.555c-0.004,0.003 -0.008,0.005 -0.012,0.008c-0.029,0.02 -0.059,0.038 -0.089,0.056l-0.003,0.002l-4.018,2.32l-3.985,2.301c-0.032,0.016 -0.062,0.034 -0.095,0.049c-0.005,0.003 -0.011,0.006 -0.018,0.009l-0.001,0c-0.006,0.004 -0.013,0.007 -0.02,0.009c-0.053,0.024 -0.107,0.043 -0.163,0.059c-0.012,0.004 -0.024,0.007 -0.037,0.01c-0.006,0.002 -0.012,0.004 -0.019,0.005c-0.075,0.018 -0.151,0.03 -0.227,0.035c-0.008,0.001 -0.017,0.001 -0.025,0.001l-0.004,0c-0.076,0.004 -0.152,0.001 -0.227,-0.009c-0.008,0 -0.016,-0.001 -0.023,-0.003l-0.003,0c-0.034,-0.005 -0.069,-0.011 -0.103,-0.019c-0.006,-0.001 -0.013,-0.003 -0.019,-0.005c-0.019,-0.004 -0.038,-0.009 -0.057,-0.015c-0.023,-0.006 -0.045,-0.013 -0.067,-0.021c-0.007,-0.002 -0.015,-0.005 -0.023,-0.008c-0.038,-0.014 -0.075,-0.03 -0.112,-0.047c-0.032,-0.016 -0.063,-0.034 -0.095,-0.05l-2.788,-1.61l-13.219,-7.632l-0.107,-0.069c-0.033,-0.026 -0.068,-0.051 -0.1,-0.078c-0.129,-0.112 -0.235,-0.247 -0.313,-0.399c-0.059,-0.113 -0.101,-0.234 -0.125,-0.359c-0.032,-0.167 -0.032,-0.34 0,-0.507c0.04,-0.209 0.131,-0.407 0.262,-0.574c0.079,-0.1 0.172,-0.189 0.276,-0.263c0.035,-0.024 0.071,-0.046 0.107,-0.068l7.335,-4.235Zm7.941,-3.111l-5.265,-3.04l0,15.393l4.365,2.52l0.9,0.52l0,-15.393Zm2.8,0l0,15.393l5.265,-3.04l0,-8.469l0,-0.001l0,-6.923l-5.265,3.04Zm-14.731,8.504l3.99,2.304l0,-4.607c-1.33,0.768 -2.66,1.536 -3.99,2.303Zm22.672,-2.303l0,4.607l3.99,-2.304l-3.99,-2.303Z" style="fill:#002554;"/><rect x="0" y="0" width="40.406" height="40.406" style="fill:none;"/></svg>